<mxfile host="app.diagrams.net" modified="2022-04-21T10:15:31.769Z" agent="5.0 (Windows NT 10.0; Win64; x64) AppleWebKit/537.36 (KHTML, like Gecko) Chrome/100.0.4896.127 Safari/537.36 Edg/100.0.1185.44" etag="bdZZVnd9FiTDpvkq0UIw" version="17.4.6" type="gitlab">
  <diagram id="BMl3dXb9psAjujw7xTND" name="Page-1">
    <mxGraphModel dx="713" dy="504" grid="1" gridSize="10" guides="1" tooltips="1" connect="1" arrows="1" fold="1" page="1" pageScale="1" pageWidth="1169" pageHeight="827" math="0" shadow="0">
      <root>
        <mxCell id="0" />
        <mxCell id="1" parent="0" />
        <mxCell id="vPxf7aNotb2xmKRgljqm-3" value="&lt;font style=&quot;font-size: 24px&quot;&gt;Master&lt;/font&gt;" style="rounded=1;whiteSpace=wrap;html=1;" vertex="1" parent="1">
          <mxGeometry x="750" y="80" width="100" height="30" as="geometry" />
        </mxCell>
        <mxCell id="vPxf7aNotb2xmKRgljqm-7" value="&lt;font style=&quot;font-size: 24px&quot;&gt;Feature&lt;/font&gt;" style="rounded=1;whiteSpace=wrap;html=1;" vertex="1" parent="1">
          <mxGeometry x="320" y="80" width="100" height="30" as="geometry" />
        </mxCell>
        <mxCell id="vPxf7aNotb2xmKRgljqm-8" value="&lt;font style=&quot;font-size: 24px&quot;&gt;Develop&lt;/font&gt;" style="rounded=1;whiteSpace=wrap;html=1;" vertex="1" parent="1">
          <mxGeometry x="538" y="80" width="100" height="30" as="geometry" />
        </mxCell>
        <mxCell id="vPxf7aNotb2xmKRgljqm-11" value="" style="endArrow=none;dashed=1;html=1;rounded=0;fontSize=24;entryX=0.5;entryY=1;entryDx=0;entryDy=0;" edge="1" parent="1">
          <mxGeometry width="50" height="50" relative="1" as="geometry">
            <mxPoint x="799" y="460" as="sourcePoint" />
            <mxPoint x="799.17" y="109.99999999999989" as="targetPoint" />
          </mxGeometry>
        </mxCell>
        <mxCell id="vPxf7aNotb2xmKRgljqm-12" value="" style="endArrow=none;dashed=1;html=1;rounded=0;fontSize=24;entryX=0.5;entryY=1;entryDx=0;entryDy=0;" edge="1" parent="1">
          <mxGeometry width="50" height="50" relative="1" as="geometry">
            <mxPoint x="587" y="460" as="sourcePoint" />
            <mxPoint x="587.1700000000001" y="109.99999999999989" as="targetPoint" />
          </mxGeometry>
        </mxCell>
        <mxCell id="vPxf7aNotb2xmKRgljqm-13" value="" style="endArrow=none;dashed=1;html=1;rounded=0;fontSize=24;entryX=0.5;entryY=1;entryDx=0;entryDy=0;" edge="1" parent="1">
          <mxGeometry width="50" height="50" relative="1" as="geometry">
            <mxPoint x="369" y="460" as="sourcePoint" />
            <mxPoint x="369.16999999999996" y="109.99999999999989" as="targetPoint" />
          </mxGeometry>
        </mxCell>
      </root>
    </mxGraphModel>
  </diagram>
</mxfile>
